<mxfile host="app.diagrams.net" modified="2021-07-23T06:32:37.294Z" agent="5.0 (Windows NT 10.0; WOW64) AppleWebKit/537.36 (KHTML, like Gecko) Chrome/76.0.3809.87 Safari/537.36" etag="40sBRiBsmJODDmumBaOF" version="14.9.2" type="github">
  <diagram id="C5RBs43oDa-KdzZeNtuy" name="Page-1">
    <mxGraphModel dx="1185" dy="662" grid="1" gridSize="10" guides="1" tooltips="1" connect="1" arrows="1" fold="1" page="1" pageScale="1" pageWidth="827" pageHeight="1169" math="0" shadow="0">
      <root>
        <mxCell id="WIyWlLk6GJQsqaUBKTNV-0" />
        <mxCell id="WIyWlLk6GJQsqaUBKTNV-1" parent="WIyWlLk6GJQsqaUBKTNV-0" />
        <mxCell id="WIyWlLk6GJQsqaUBKTNV-2" value="" style="rounded=0;html=1;jettySize=auto;orthogonalLoop=1;fontSize=11;endArrow=block;endFill=0;endSize=8;strokeWidth=1;shadow=0;labelBackgroundColor=none;edgeStyle=orthogonalEdgeStyle;exitX=0.5;exitY=1;exitDx=0;exitDy=0;" parent="WIyWlLk6GJQsqaUBKTNV-1" source="WIyWlLk6GJQsqaUBKTNV-3" edge="1">
          <mxGeometry relative="1" as="geometry">
            <mxPoint x="250" y="210.0000000000001" as="sourcePoint" />
            <mxPoint x="250" y="290" as="targetPoint" />
          </mxGeometry>
        </mxCell>
        <mxCell id="WIyWlLk6GJQsqaUBKTNV-3" value="Browser" style="rounded=1;whiteSpace=wrap;html=1;fontSize=12;glass=0;strokeWidth=1;shadow=0;" parent="WIyWlLk6GJQsqaUBKTNV-1" vertex="1">
          <mxGeometry x="190" y="180" width="120" height="40" as="geometry" />
        </mxCell>
        <mxCell id="jq6u_ONpxDWR8st99hKC-2" value="" style="endArrow=classic;html=1;entryX=0.25;entryY=0;entryDx=0;entryDy=0;" edge="1" parent="WIyWlLk6GJQsqaUBKTNV-1" target="jq6u_ONpxDWR8st99hKC-4">
          <mxGeometry width="50" height="50" relative="1" as="geometry">
            <mxPoint x="200" y="360" as="sourcePoint" />
            <mxPoint x="250" y="430" as="targetPoint" />
          </mxGeometry>
        </mxCell>
        <mxCell id="jq6u_ONpxDWR8st99hKC-67" value="请求目标数据" style="edgeLabel;html=1;align=center;verticalAlign=middle;resizable=0;points=[];fontSize=12;" vertex="1" connectable="0" parent="jq6u_ONpxDWR8st99hKC-2">
          <mxGeometry x="-0.2476" y="1" relative="1" as="geometry">
            <mxPoint as="offset" />
          </mxGeometry>
        </mxCell>
        <mxCell id="jq6u_ONpxDWR8st99hKC-3" value="vue.js + elementUI" style="rounded=1;whiteSpace=wrap;html=1;" vertex="1" parent="WIyWlLk6GJQsqaUBKTNV-1">
          <mxGeometry x="150" y="290" width="200" height="70" as="geometry" />
        </mxCell>
        <mxCell id="jq6u_ONpxDWR8st99hKC-4" value="egg.js" style="rounded=1;whiteSpace=wrap;html=1;" vertex="1" parent="WIyWlLk6GJQsqaUBKTNV-1">
          <mxGeometry x="150" y="430" width="200" height="71" as="geometry" />
        </mxCell>
        <mxCell id="jq6u_ONpxDWR8st99hKC-7" value="" style="endArrow=none;dashed=1;html=1;fontSize=12;" edge="1" parent="WIyWlLk6GJQsqaUBKTNV-1">
          <mxGeometry width="50" height="50" relative="1" as="geometry">
            <mxPoint x="50" y="260" as="sourcePoint" />
            <mxPoint x="450" y="260" as="targetPoint" />
          </mxGeometry>
        </mxCell>
        <mxCell id="jq6u_ONpxDWR8st99hKC-8" value="访问层" style="text;html=1;strokeColor=none;fillColor=none;align=center;verticalAlign=middle;whiteSpace=wrap;rounded=0;fontSize=12;" vertex="1" parent="WIyWlLk6GJQsqaUBKTNV-1">
          <mxGeometry x="50" y="190" width="40" height="20" as="geometry" />
        </mxCell>
        <mxCell id="jq6u_ONpxDWR8st99hKC-9" value="" style="endArrow=none;dashed=1;html=1;fontSize=12;" edge="1" parent="WIyWlLk6GJQsqaUBKTNV-1">
          <mxGeometry width="50" height="50" relative="1" as="geometry">
            <mxPoint x="50" y="399" as="sourcePoint" />
            <mxPoint x="450" y="399" as="targetPoint" />
          </mxGeometry>
        </mxCell>
        <mxCell id="jq6u_ONpxDWR8st99hKC-12" value="前端" style="text;html=1;strokeColor=none;fillColor=none;align=center;verticalAlign=middle;whiteSpace=wrap;rounded=0;fontSize=12;" vertex="1" parent="WIyWlLk6GJQsqaUBKTNV-1">
          <mxGeometry x="50" y="320" width="40" height="20" as="geometry" />
        </mxCell>
        <mxCell id="jq6u_ONpxDWR8st99hKC-13" value="后台" style="text;html=1;strokeColor=none;fillColor=none;align=center;verticalAlign=middle;whiteSpace=wrap;rounded=0;fontSize=12;" vertex="1" parent="WIyWlLk6GJQsqaUBKTNV-1">
          <mxGeometry x="50" y="461" width="40" height="20" as="geometry" />
        </mxCell>
        <mxCell id="jq6u_ONpxDWR8st99hKC-21" value="" style="endArrow=classic;html=1;exitX=0.5;exitY=1;exitDx=0;exitDy=0;entryX=0.5;entryY=0;entryDx=0;entryDy=0;" edge="1" parent="WIyWlLk6GJQsqaUBKTNV-1">
          <mxGeometry width="50" height="50" relative="1" as="geometry">
            <mxPoint x="180" y="501.0000000000001" as="sourcePoint" />
            <mxPoint x="180" y="582" as="targetPoint" />
          </mxGeometry>
        </mxCell>
        <mxCell id="jq6u_ONpxDWR8st99hKC-59" value="获取目标数据" style="edgeLabel;html=1;align=center;verticalAlign=middle;resizable=0;points=[];fontSize=12;" vertex="1" connectable="0" parent="jq6u_ONpxDWR8st99hKC-21">
          <mxGeometry x="0.5103" relative="1" as="geometry">
            <mxPoint as="offset" />
          </mxGeometry>
        </mxCell>
        <mxCell id="jq6u_ONpxDWR8st99hKC-22" value="Mongdb" style="rounded=1;whiteSpace=wrap;html=1;" vertex="1" parent="WIyWlLk6GJQsqaUBKTNV-1">
          <mxGeometry x="150" y="582" width="200" height="60" as="geometry" />
        </mxCell>
        <mxCell id="jq6u_ONpxDWR8st99hKC-23" value="" style="endArrow=none;dashed=1;html=1;fontSize=12;" edge="1" parent="WIyWlLk6GJQsqaUBKTNV-1">
          <mxGeometry width="50" height="50" relative="1" as="geometry">
            <mxPoint x="50" y="540" as="sourcePoint" />
            <mxPoint x="450" y="540" as="targetPoint" />
          </mxGeometry>
        </mxCell>
        <mxCell id="jq6u_ONpxDWR8st99hKC-24" value="数据库" style="text;html=1;strokeColor=none;fillColor=none;align=center;verticalAlign=middle;whiteSpace=wrap;rounded=0;fontSize=12;" vertex="1" parent="WIyWlLk6GJQsqaUBKTNV-1">
          <mxGeometry x="50" y="602" width="40" height="20" as="geometry" />
        </mxCell>
        <mxCell id="jq6u_ONpxDWR8st99hKC-25" value="TFS服务器" style="rounded=0;whiteSpace=wrap;html=1;fontSize=12;verticalAlign=middle;align=center;horizontal=1;" vertex="1" parent="WIyWlLk6GJQsqaUBKTNV-1">
          <mxGeometry x="610" y="351" width="120" height="60" as="geometry" />
        </mxCell>
        <mxCell id="jq6u_ONpxDWR8st99hKC-35" value="" style="endArrow=none;dashed=1;html=1;fontSize=12;" edge="1" parent="WIyWlLk6GJQsqaUBKTNV-1">
          <mxGeometry width="50" height="50" relative="1" as="geometry">
            <mxPoint x="520" y="329.58" as="sourcePoint" />
            <mxPoint x="840" y="329.58" as="targetPoint" />
          </mxGeometry>
        </mxCell>
        <mxCell id="jq6u_ONpxDWR8st99hKC-36" value="" style="endArrow=none;dashed=1;html=1;fontSize=12;" edge="1" parent="WIyWlLk6GJQsqaUBKTNV-1">
          <mxGeometry width="50" height="50" relative="1" as="geometry">
            <mxPoint x="520" y="429.9999999999999" as="sourcePoint" />
            <mxPoint x="840" y="429.9999999999999" as="targetPoint" />
          </mxGeometry>
        </mxCell>
        <mxCell id="jq6u_ONpxDWR8st99hKC-39" value="sonar服务器" style="rounded=0;whiteSpace=wrap;html=1;fontSize=12;verticalAlign=middle;align=center;horizontal=1;" vertex="1" parent="WIyWlLk6GJQsqaUBKTNV-1">
          <mxGeometry x="611" y="623.4200000000001" width="120" height="60" as="geometry" />
        </mxCell>
        <mxCell id="jq6u_ONpxDWR8st99hKC-43" value="" style="endArrow=none;dashed=1;html=1;fontSize=12;" edge="1" parent="WIyWlLk6GJQsqaUBKTNV-1">
          <mxGeometry width="50" height="50" relative="1" as="geometry">
            <mxPoint x="521" y="601.9999999999998" as="sourcePoint" />
            <mxPoint x="841" y="601.9999999999998" as="targetPoint" />
          </mxGeometry>
        </mxCell>
        <mxCell id="jq6u_ONpxDWR8st99hKC-44" value="" style="endArrow=none;dashed=1;html=1;fontSize=12;" edge="1" parent="WIyWlLk6GJQsqaUBKTNV-1">
          <mxGeometry width="50" height="50" relative="1" as="geometry">
            <mxPoint x="521" y="702.4199999999998" as="sourcePoint" />
            <mxPoint x="841" y="702.4199999999998" as="targetPoint" />
          </mxGeometry>
        </mxCell>
        <mxCell id="jq6u_ONpxDWR8st99hKC-45" value="" style="edgeStyle=segmentEdgeStyle;endArrow=classic;html=1;fontSize=12;verticalAlign=middle;exitX=0.997;exitY=0.135;exitDx=0;exitDy=0;exitPerimeter=0;" edge="1" parent="WIyWlLk6GJQsqaUBKTNV-1">
          <mxGeometry width="50" height="50" relative="1" as="geometry">
            <mxPoint x="349.4000000000001" y="435.58500000000004" as="sourcePoint" />
            <mxPoint x="649" y="411" as="targetPoint" />
          </mxGeometry>
        </mxCell>
        <mxCell id="jq6u_ONpxDWR8st99hKC-46" value="定时请求数据" style="edgeLabel;html=1;align=center;verticalAlign=middle;resizable=0;points=[];fontSize=12;" vertex="1" connectable="0" parent="jq6u_ONpxDWR8st99hKC-45">
          <mxGeometry x="0.055" y="-3" relative="1" as="geometry">
            <mxPoint as="offset" />
          </mxGeometry>
        </mxCell>
        <mxCell id="jq6u_ONpxDWR8st99hKC-47" value="" style="edgeStyle=segmentEdgeStyle;endArrow=classic;html=1;fontSize=12;verticalAlign=middle;" edge="1" parent="WIyWlLk6GJQsqaUBKTNV-1" target="jq6u_ONpxDWR8st99hKC-4">
          <mxGeometry width="50" height="50" relative="1" as="geometry">
            <mxPoint x="680" y="411" as="sourcePoint" />
            <mxPoint x="352" y="459" as="targetPoint" />
            <Array as="points">
              <mxPoint x="680" y="459" />
            </Array>
          </mxGeometry>
        </mxCell>
        <mxCell id="jq6u_ONpxDWR8st99hKC-48" value="返回定时数据" style="edgeLabel;html=1;align=center;verticalAlign=middle;resizable=0;points=[];fontSize=12;" vertex="1" connectable="0" parent="jq6u_ONpxDWR8st99hKC-47">
          <mxGeometry x="0.1365" y="-1" relative="1" as="geometry">
            <mxPoint y="-3" as="offset" />
          </mxGeometry>
        </mxCell>
        <mxCell id="jq6u_ONpxDWR8st99hKC-49" value="" style="edgeStyle=segmentEdgeStyle;endArrow=classic;html=1;fontSize=12;verticalAlign=middle;entryX=0.698;entryY=0.024;entryDx=0;entryDy=0;entryPerimeter=0;" edge="1" parent="WIyWlLk6GJQsqaUBKTNV-1">
          <mxGeometry width="50" height="50" relative="1" as="geometry">
            <mxPoint x="350" y="476" as="sourcePoint" />
            <mxPoint x="680.76" y="624.8600000000001" as="targetPoint" />
            <Array as="points">
              <mxPoint x="681" y="476" />
            </Array>
          </mxGeometry>
        </mxCell>
        <mxCell id="jq6u_ONpxDWR8st99hKC-51" value="定时请求数据" style="edgeLabel;html=1;align=center;verticalAlign=middle;resizable=0;points=[];fontSize=12;" vertex="1" connectable="0" parent="jq6u_ONpxDWR8st99hKC-49">
          <mxGeometry x="-0.3359" y="1" relative="1" as="geometry">
            <mxPoint as="offset" />
          </mxGeometry>
        </mxCell>
        <mxCell id="jq6u_ONpxDWR8st99hKC-50" value="" style="edgeStyle=segmentEdgeStyle;endArrow=classic;html=1;fontSize=12;verticalAlign=middle;exitX=0.364;exitY=0.005;exitDx=0;exitDy=0;exitPerimeter=0;" edge="1" parent="WIyWlLk6GJQsqaUBKTNV-1">
          <mxGeometry width="50" height="50" relative="1" as="geometry">
            <mxPoint x="650.6800000000001" y="623.72" as="sourcePoint" />
            <mxPoint x="350" y="494" as="targetPoint" />
            <Array as="points">
              <mxPoint x="651" y="494" />
            </Array>
          </mxGeometry>
        </mxCell>
        <mxCell id="jq6u_ONpxDWR8st99hKC-66" value="返回定时数据" style="edgeLabel;html=1;align=center;verticalAlign=middle;resizable=0;points=[];fontSize=12;" vertex="1" connectable="0" parent="jq6u_ONpxDWR8st99hKC-50">
          <mxGeometry x="0.2604" relative="1" as="geometry">
            <mxPoint as="offset" />
          </mxGeometry>
        </mxCell>
        <mxCell id="jq6u_ONpxDWR8st99hKC-53" value="" style="endArrow=classic;html=1;exitX=0.5;exitY=1;exitDx=0;exitDy=0;entryX=0.5;entryY=0;entryDx=0;entryDy=0;" edge="1" parent="WIyWlLk6GJQsqaUBKTNV-1">
          <mxGeometry width="50" height="50" relative="1" as="geometry">
            <mxPoint x="320" y="501" as="sourcePoint" />
            <mxPoint x="320" y="582" as="targetPoint" />
          </mxGeometry>
        </mxCell>
        <mxCell id="jq6u_ONpxDWR8st99hKC-56" value="存入定时数据" style="edgeLabel;html=1;align=center;verticalAlign=middle;resizable=0;points=[];fontSize=12;" vertex="1" connectable="0" parent="jq6u_ONpxDWR8st99hKC-53">
          <mxGeometry x="-0.3745" y="1" relative="1" as="geometry">
            <mxPoint as="offset" />
          </mxGeometry>
        </mxCell>
        <mxCell id="jq6u_ONpxDWR8st99hKC-54" value="数据源服务器" style="text;html=1;strokeColor=none;fillColor=none;align=center;verticalAlign=middle;whiteSpace=wrap;rounded=0;fontSize=12;" vertex="1" parent="WIyWlLk6GJQsqaUBKTNV-1">
          <mxGeometry x="800" y="371" width="40" height="20" as="geometry" />
        </mxCell>
        <mxCell id="jq6u_ONpxDWR8st99hKC-55" value="" style="endArrow=classic;html=1;exitX=0.5;exitY=1;exitDx=0;exitDy=0;entryX=0.4;entryY=0.986;entryDx=0;entryDy=0;entryPerimeter=0;" edge="1" parent="WIyWlLk6GJQsqaUBKTNV-1" target="jq6u_ONpxDWR8st99hKC-4">
          <mxGeometry width="50" height="50" relative="1" as="geometry">
            <mxPoint x="230" y="582" as="sourcePoint" />
            <mxPoint x="230" y="663" as="targetPoint" />
          </mxGeometry>
        </mxCell>
        <mxCell id="jq6u_ONpxDWR8st99hKC-57" value="返回目标数据" style="edgeLabel;html=1;align=center;verticalAlign=middle;resizable=0;points=[];fontSize=12;" vertex="1" connectable="0" parent="jq6u_ONpxDWR8st99hKC-55">
          <mxGeometry x="0.2155" relative="1" as="geometry">
            <mxPoint as="offset" />
          </mxGeometry>
        </mxCell>
        <mxCell id="jq6u_ONpxDWR8st99hKC-61" value="数据源服务器" style="text;html=1;strokeColor=none;fillColor=none;align=center;verticalAlign=middle;whiteSpace=wrap;rounded=0;fontSize=12;" vertex="1" parent="WIyWlLk6GJQsqaUBKTNV-1">
          <mxGeometry x="800" y="643.4200000000001" width="40" height="20" as="geometry" />
        </mxCell>
        <mxCell id="jq6u_ONpxDWR8st99hKC-62" value="" style="endArrow=classic;html=1;entryX=0.4;entryY=0.986;entryDx=0;entryDy=0;entryPerimeter=0;" edge="1" parent="WIyWlLk6GJQsqaUBKTNV-1">
          <mxGeometry width="50" height="50" relative="1" as="geometry">
            <mxPoint x="280" y="430" as="sourcePoint" />
            <mxPoint x="280" y="359.99599999999987" as="targetPoint" />
          </mxGeometry>
        </mxCell>
        <mxCell id="jq6u_ONpxDWR8st99hKC-63" value="返回目标数据" style="edgeLabel;html=1;align=center;verticalAlign=middle;resizable=0;points=[];fontSize=12;" vertex="1" connectable="0" parent="jq6u_ONpxDWR8st99hKC-62">
          <mxGeometry x="0.2155" relative="1" as="geometry">
            <mxPoint as="offset" />
          </mxGeometry>
        </mxCell>
      </root>
    </mxGraphModel>
  </diagram>
</mxfile>
